# xmcd CD database file
#
# Track frame offsets:
#	150
#	22889
#	43531
#	61327
#	78345
#	97426
#	116797
#	139280
#	157216
#	171644
#	186359
#	208945
#
# Disc length: 2959 seconds
#
# Revision: 1
# Processed by: cddbd v1.5.1PL2 Copyright (c) Steve Scherf et al.
# Submitted via: CDex 1.51
#
DISCID=b90b8d0c
DTITLE=Ron Eschet Ensemble - The Beatles (Instrumental Jazz Tribute)
DYEAR=2005
DGENRE=Jazz
TTITLE0=Yesterday
TTITLE1=And I Love Her
TTITLE2=Penny Lane
TTITLE3=Blackbird
TTITLE4=Can't Buy Me Love
TTITLE5=She's Leaving Me
TTITLE6=Ticket To Ride
TTITLE7=Michelle
TTITLE8=When I'm Sixty Four
TTITLE9=Norwegian Wood
TTITLE10=Fool On The Hill
TTITLE11=Eleanor Rigby
EXTD=YEAR: 2005
EXTT0=
EXTT1=
EXTT2=
EXTT3=
EXTT4=
EXTT5=
EXTT6=
EXTT7=
EXTT8=
EXTT9=
EXTT10=
EXTT11=
PLAYORDER=
